<?xml version="1.0" encoding="utf-8"?>

<!-- Uploaded to: SVG Repo, www.svgrepo.com, Generator: SVG Repo Mixer Tools -->
<svg version="1.1" id="Icons" xmlns="http://www.w3.org/2000/svg" xmlns:xlink="http://www.w3.org/1999/xlink" 
	 viewBox="0 0 32 32" xml:space="preserve">
<style type="text/css">
	.st0{fill:none;stroke:#000000;stroke-width:2;stroke-linecap:round;stroke-linejoin:round;stroke-miterlimit:10;}
	.st1{fill:none;stroke:#000000;stroke-width:2;stroke-linecap:round;stroke-linejoin:round;}
	.st2{fill:none;stroke:#000000;stroke-width:2;stroke-linecap:round;stroke-linejoin:round;stroke-dasharray:5.2066,0;}
</style>
<path class="st0" d="M22,25H9c-1.1,0-2,0.9-2,2v2h18v-2c0-1.1-0.9-2-2-2H22L22,25c0-2.6,1-5,2.8-6.8L25,18l0,0c0.6-4.8-1.8-9.6-6-12
	l0,0l0,0c-0.6-1.3-1.8-2.3-3.1-2.7L15,3v3l-2,1v1l-5.1,3.4c-0.6,0.4-0.9,1-0.9,1.7V15l1.1-0.2c2.6-0.5,5.3-0.8,7.9-0.8h0l-0.5,0.5
	C12,17,10,21,9,25"/>
</svg>